<?xml version="1.0" encoding="utf-8"?>
<!-- Generator: Adobe Illustrator 16.0.0, SVG Export Plug-In . SVG Version: 6.00 Build 0)  -->
<!DOCTYPE svg PUBLIC "-//W3C//DTD SVG 1.1//EN" "http://www.w3.org/Graphics/SVG/1.1/DTD/svg11.dtd">
<svg version="1.1" id="Layer_1" xmlns="http://www.w3.org/2000/svg" xmlns:xlink="http://www.w3.org/1999/xlink" x="0px" y="0px"
	 width="500px" height="500px" viewBox="0 0 500 500" enable-background="new 0 0 500 500" xml:space="preserve">
<g>
	<g>
		<path fill="#F2C63E" d="M499.998,250c0,138.073-111.932,250-250.007,250C111.936,500,0,388.073,0,250
			C0,111.93,111.936,0,249.991,0C388.066,0,499.998,111.93,499.998,250z"/>
	</g>
	<path fill="#E2B22C" d="M478.276,352.066l-11.79-58.711l-45.578-49.25l-39.301-58.881l-167.939-73.38l-44.854,240.567
		l-5.373,39.787l20.2,58.725l29.906,46.418c11.895,1.744,24.065,2.659,36.443,2.659C351.714,500,439.231,439.252,478.276,352.066z"
		/>
	<g opacity="0.3">
		<g>
			<path fill="#F3EED0" d="M5.031,198.005c8.245,17.346,16.49,34.692,24.735,52.038c0.109,0.23,0.476,0.328,0.685,0.179
				c20.303-14.508,40.607-29.015,60.91-43.523c3.973-2.838,7.945-5.677,11.918-8.515c0.205-0.146,0.348-0.448,0.179-0.684
				c-14.163-19.813-28.325-39.626-42.487-59.439c-6.307-8.824-12.613-17.647-18.921-26.47c-0.317-0.443-1.074-0.19-0.913,0.385
				c6.402,22.943,12.805,45.886,19.207,68.829c3.663,13.129,7.326,26.259,10.99,39.388c0.205-0.205,0.41-0.41,0.615-0.615
				c-21.943-7.377-43.887-14.755-65.831-22.132c-0.175-0.059-0.349-0.117-0.522-0.175c-0.613-0.207-0.873,0.76-0.266,0.964
				c21.943,7.377,43.887,14.755,65.831,22.132c0.175,0.059,0.349,0.117,0.522,0.175c0.367,0.124,0.713-0.263,0.615-0.615
				c-6.402-22.943-12.805-45.886-19.207-68.829c-3.664-13.129-7.328-26.259-10.992-39.388c-0.304,0.128-0.608,0.257-0.913,0.385
				c14.163,19.813,28.325,39.626,42.487,59.439c6.307,8.824,12.613,17.647,18.921,26.47c0.06-0.228,0.12-0.456,0.179-0.684
				c-20.303,14.508-40.607,29.015-60.91,43.523c-3.973,2.838-7.945,5.677-11.918,8.515c0.229,0.06,0.457,0.12,0.685,0.179
				c-8.245-17.346-16.49-34.692-24.735-52.038C5.617,196.918,4.756,197.426,5.031,198.005L5.031,198.005z"/>
		</g>
	</g>
	<g opacity="0.3">
		<g>
			<path fill="#F3EED0" d="M4.603,298.523c24.082-2.528,48.163-5.055,72.245-7.583c11.289-1.185,22.577-2.37,33.865-3.554
				c0.438-0.046,0.754-0.701,0.252-0.932c-22.701-10.459-45.402-20.918-68.104-31.377c-4.137-1.906-8.273-3.812-12.41-5.718
				c-0.24-0.11-0.548-0.078-0.685,0.179c-8.532,16.078-17.063,32.155-25.596,48.232c-0.302,0.569,0.562,1.075,0.863,0.505
				c8.532-16.077,17.063-32.155,25.596-48.232c-0.228,0.06-0.456,0.12-0.685,0.179c22.702,10.459,45.403,20.918,68.104,31.377
				c4.138,1.906,8.274,3.812,12.411,5.718c0.084-0.311,0.168-0.621,0.252-0.932c-24.082,2.528-48.164,5.055-72.246,7.583
				c-11.287,1.185-22.576,2.37-33.864,3.554C3.968,297.589,3.961,298.59,4.603,298.523L4.603,298.523z"/>
		</g>
	</g>
	<g opacity="0.3">
		<g>
			<path fill="#F3EED0" d="M70.395,268.365c10.391-22.112,20.781-44.224,31.172-66.335c0.631-1.341,1.262-2.683,1.892-4.024
				c-0.305-0.04-0.609-0.08-0.913-0.12c5.639,23.837,11.277,47.674,16.917,71.512c2.222,9.392,4.443,18.783,6.665,28.175
				c0.245-0.188,0.49-0.376,0.734-0.564c-5.299-3.518-10.598-7.036-15.896-10.554c-0.194-0.129-0.442-0.064-0.605,0.078
				c-17.953,15.735-35.906,31.47-53.859,47.206c-10.273,9.004-20.548,18.009-30.821,27.013c-0.485,0.426,0.224,1.13,0.707,0.707
				c17.953-15.735,35.906-31.47,53.859-47.206c9.128-8,18.257-16.001,27.386-24.002c0.938-0.822,1.877-1.645,2.814-2.467
				c0.188-0.166,0.377-0.331,0.566-0.496c0.247-0.217-0.736-0.093-0.496,0.067c0.325,0.215,0.65,0.431,0.975,0.646
				c4.955,3.29,9.911,6.58,14.867,9.87c0.385,0.255,0.829-0.163,0.734-0.564c-5.64-23.837-11.279-47.674-16.918-71.512
				c-2.222-9.392-4.443-18.783-6.666-28.175c-0.094-0.401-0.728-0.515-0.913-0.12c-10.391,22.112-20.782,44.224-31.173,66.335
				c-0.63,1.341-1.26,2.683-1.891,4.024C69.259,268.44,70.121,268.948,70.395,268.365L70.395,268.365z"/>
		</g>
	</g>
	<g opacity="0.3">
		<g>
			<path fill="#F3EED0" d="M125.768,297.42c19.366-13.948,38.732-27.895,58.1-41.843c0.461-0.333,0.924-0.666,1.385-0.998
				c-0.244-0.1-0.489-0.199-0.734-0.299c4.458,11.57,8.916,23.14,13.374,34.709c0.925,2.399,1.849,4.799,2.773,7.198
				c0.171,0.442,0.341,0.884,0.511,1.326c-0.058-0.15,0.045-0.261-0.121,0.149c-1.262,3.127-2.523,6.254-3.785,9.38
				c-10.664,26.426-21.328,52.852-31.992,79.277c-0.602,1.492-1.203,2.983-1.806,4.475c-0.146,0.36-0.651,1.133-0.505,1.555
				c1.27,3.692,2.539,7.385,3.81,11.078c4.842,14.075,9.684,28.151,14.524,42.226c0.745,2.165,1.264,4.521,2.512,6.456
				c3.104,4.817,6.207,9.634,9.311,14.45c6.666,10.344,13.33,20.688,19.996,31.033c0.004,0.006,0.008,0.013,0.013,0.02
				c0.208,0.322,0.655,0.322,0.863,0c11.749-18.201,23.498-36.401,35.247-54.602c13.389-20.74,26.777-41.48,40.165-62.221
				c0.167-0.258,0.333-0.516,0.5-0.774c0.118-0.184,0.079-0.458-0.078-0.606c-16.929-15.874-33.856-31.747-50.784-47.62
				c-12.337-11.568-24.674-23.136-37.011-34.705c-0.343-0.322-0.804-0.069-0.854,0.354c-2.388,20.322-4.776,40.643-7.165,60.965
				c-3.312,28.188-6.626,56.376-9.939,84.564c-0.312,2.651-0.623,5.303-0.935,7.955c-0.019,0.153,0.104,0.371,0.247,0.432
				c21.619,9.207,43.237,18.414,64.855,27.621c14.172,6.036,28.345,12.072,42.518,18.107c0.471,0.201,0.898-0.206,0.684-0.684
				c-6.633-14.792-13.268-29.585-19.9-44.378c-13.119-29.254-26.237-58.508-39.355-87.763
				c-9.432-21.031-18.862-42.062-28.293-63.093c-0.59-1.314-1.18-2.629-1.769-3.943c-0.007-0.017,0.001,0.583,0.062,0.158
				c0.052-0.367,0.104-0.733,0.157-1.099c0.219-1.524,0.437-3.047,0.654-4.571c1.896-13.244,3.793-26.487,5.688-39.73
				c2.177-15.203,4.353-30.405,6.53-45.607c0.627-4.386,1.256-8.772,1.883-13.159c0.275-1.918,0.462-2.297-0.894-3.692
				c-16.803-17.292-33.605-34.584-50.409-51.875c-0.009-0.01-0.018-0.019-0.027-0.029c-0.207-0.213-0.652-0.196-0.785,0.101
				c-4.766,10.691-9.532,21.382-14.298,32.073c-2.718,6.097-5.436,12.193-8.153,18.29c-0.498,1.116-0.995,2.232-1.493,3.349
				c-0.255,0.571,0.545,1.32,0.841,1.744c14.146,20.293,28.295,40.587,42.441,60.88c0.081,0.115,0.162,0.231,0.242,0.347
				c0.199,0.286,0.682,0.36,0.863,0c10.527-20.833,21.055-41.665,31.582-62.497c0.113-0.226,0.229-0.452,0.342-0.677
				c0.29-0.574-0.572-1.081-0.863-0.505c-10.527,20.833-21.055,41.665-31.582,62.497c-0.113,0.226-0.229,0.452-0.342,0.677
				c0.287,0,0.576,0,0.863,0c-13.871-19.898-27.744-39.796-41.615-59.694c-0.627-0.898-1.252-1.796-1.879-2.694
				c0.102,0.146-0.152,0.704,0.141,0.045c0.279-0.627,0.559-1.254,0.838-1.881c2.55-5.718,5.1-11.437,7.648-17.155
				c5.077-11.389,10.154-22.777,15.23-34.166c0.02-0.042,0.038-0.084,0.057-0.126c-0.262,0.034-0.523,0.067-0.785,0.101
				c16.695,17.182,33.391,34.363,50.087,51.544c0.37,0.382,0.741,0.764,1.112,1.146c0.451,0.463,0.121,0.208,0.169-0.125
				c-0.113,0.791-0.226,1.582-0.339,2.372c-0.648,4.523-1.296,9.047-1.943,13.571c-2.189,15.287-4.377,30.574-6.566,45.86
				c-1.871,13.075-3.744,26.15-5.615,39.226c-0.207,1.442-0.414,2.884-0.62,4.327c-0.058,0.404-0.272,1.065-0.097,1.459
				c0.553,1.23,1.104,2.46,1.655,3.689c9.343,20.834,18.685,41.668,28.028,62.503c13.132,29.284,26.264,58.569,39.396,87.853
				c6.748,15.05,13.496,30.099,20.246,45.148c0,0.002,0.001,0.004,0.002,0.006c0.229-0.228,0.456-0.456,0.684-0.684
				c-21.617-9.207-43.236-18.414-64.854-27.621c-12.125-5.164-24.251-10.328-36.376-15.492c-2.046-0.872-4.092-1.743-6.139-2.615
				c0.353,0.15,0.217,0.677,0.281,0.128c0.038-0.329,0.076-0.657,0.115-0.986c0.145-1.225,0.288-2.449,0.432-3.674
				c3.162-26.897,6.322-53.795,9.484-80.692c2.641-22.473,5.282-44.945,7.924-67.418c0.016-0.137,0.031-0.274,0.048-0.411
				c-0.284,0.118-0.569,0.236-0.854,0.354c16.929,15.874,33.856,31.747,50.784,47.62c10.056,9.429,20.111,18.858,30.167,28.287
				c2.187,2.051,4.374,4.102,6.561,6.152c0.517,0.484,0.413-0.663-0.042,0.042c-0.532,0.824-1.063,1.647-1.596,2.47
				c-14.642,22.683-29.283,45.365-43.926,68.047c-10.048,15.565-20.096,31.13-30.144,46.696c0.288,0,0.575,0,0.863,0
				c-6.497-10.084-12.995-20.168-19.493-30.253c-3.216-4.991-6.432-9.982-9.648-14.974c-1.183-1.835-1.772-4.123-2.588-6.493
				c-4.842-14.075-9.684-28.15-14.525-42.226c-1.27-3.692-2.539-7.385-3.81-11.077c0.095,0.274-0.007,0.244,0.137-0.11
				c0.173-0.43,0.347-0.86,0.521-1.291c0.649-1.608,1.299-3.217,1.947-4.825c10.683-26.473,21.365-52.946,32.049-79.418
				c1.168-2.893,2.335-5.786,3.502-8.679c0.236-0.583-0.249-1.301-0.457-1.84c-0.924-2.399-1.849-4.799-2.773-7.198
				c-4.457-11.569-8.916-23.139-13.373-34.709c-0.105-0.274-0.449-0.504-0.734-0.299c-19.367,13.948-38.734,27.895-58.1,41.843
				c-0.463,0.333-0.924,0.666-1.387,0.998C124.744,296.93,125.242,297.798,125.768,297.42L125.768,297.42z"/>
		</g>
	</g>
	<g opacity="0.3">
		<g>
			<path fill="#F3EED0" d="M141.334,191.22c-12.813,2.017-25.627,4.034-38.44,6.051c0.211,0.161,0.422,0.321,0.633,0.482
				c-1.006-21.23-2.011-42.461-3.017-63.691c-1.24-26.157-2.479-52.314-3.718-78.471c-0.042-0.887-0.084-1.774-0.126-2.662
				c-0.03-0.642-1.031-0.645-1,0c1.006,21.23,2.012,42.461,3.018,63.691c1.238,26.157,2.478,52.314,3.717,78.471
				c0.042,0.887,0.084,1.774,0.126,2.662c0.017,0.351,0.305,0.534,0.633,0.482c12.813-2.017,25.627-4.034,38.44-6.051
				C142.235,192.084,141.965,191.121,141.334,191.22L141.334,191.22z"/>
		</g>
	</g>
	<g opacity="0.3">
		<g>
			<path fill="#F3EED0" d="M432.725,418.046c-2.939-11.561-5.879-23.122-8.819-34.683c-1.478-5.809-2.954-11.619-4.433-17.428
				c-0.128-0.506-0.181-1.658-0.743-1.907c-1.257-0.555-2.514-1.11-3.771-1.665c-17.885-7.897-35.771-15.795-53.656-23.693
				c-0.333-0.147-0.754,0.02-0.752,0.432c0.129,22.091,0.257,44.183,0.385,66.273c0.133,22.744,0.266,45.488,0.397,68.233
				c0,0.013,0,0.026,0,0.039c0.004,0.645,1.004,0.645,1,0c-0.128-22.091-0.257-44.183-0.386-66.273
				c-0.132-22.744-0.264-45.488-0.396-68.232c0-0.013,0-0.026,0-0.04c-0.251,0.144-0.502,0.288-0.752,0.432
				c10.427,4.604,20.854,9.209,31.281,13.813c6.641,2.933,13.282,5.865,19.924,8.798c1.812,0.801,3.626,1.601,5.439,2.402
				c0.293,0.13,0.587,0.259,0.881,0.389c-0.379-0.167-0.182-0.175-0.01,0.501c4.482,17.625,8.965,35.25,13.447,52.875
				C431.92,418.936,432.885,418.671,432.725,418.046L432.725,418.046z"/>
		</g>
	</g>
	<g opacity="0.3">
		<g>
			<path fill="#F3EED0" d="M499.85,266.962c-14.137-20.442-28.273-40.885-42.411-61.328c-1.199-1.734-2.398-3.468-3.597-5.202
				c-0.318-0.46-0.637-0.92-0.955-1.38c-0.475-0.686-0.103-0.422-0.367-0.037c2.441-3.552,4.883-7.104,7.325-10.656
				c7.366-10.714,14.731-21.428,22.097-32.142c0.042-0.062,0.084-0.123,0.126-0.184c0.366-0.533-0.501-1.032-0.863-0.505
				c-9.851,14.329-19.701,28.658-29.552,42.986c-0.094,0.136-0.094,0.369,0,0.505c14.137,20.442,28.273,40.885,42.411,61.328
				c1.642,2.373,3.282,4.746,4.923,7.119C499.35,267.993,500.218,267.494,499.85,266.962L499.85,266.962z"/>
		</g>
	</g>
	<g opacity="0.3">
		<g>
			<path fill="#F3EED0" d="M478.144,351.591c-19.894,4.146-39.787,8.293-59.681,12.44c0.188,0.245,0.377,0.489,0.564,0.734
				c13.906-20.662,27.812-41.324,41.719-61.987c2.057-3.057,4.114-6.114,6.172-9.171c-0.305-0.04-0.609-0.08-0.914-0.12
				c3.93,19.573,7.86,39.146,11.791,58.718c0.126,0.632,1.09,0.364,0.963-0.266c-3.93-19.573-7.859-39.146-11.789-58.718
				c-0.092-0.456-0.691-0.45-0.914-0.12c-13.906,20.662-27.812,41.324-41.719,61.987c-2.057,3.057-4.114,6.114-6.172,9.171
				c-0.264,0.391,0.168,0.817,0.564,0.734c19.894-4.146,39.787-8.293,59.681-12.44C479.041,352.423,478.772,351.459,478.144,351.591
				L478.144,351.591z"/>
		</g>
	</g>
	<g opacity="0.3">
		<g>
			<path fill="#F3EED0" d="M362.265,473.395c-14.284-18.533-28.567-37.066-42.852-55.6c-9.835-12.761-19.671-25.522-29.506-38.283
				c-0.06,0.228-0.12,0.456-0.179,0.684c21.596-12.269,43.19-24.537,64.786-36.806c2.263-1.285,4.526-2.571,6.788-3.856
				c0.238-0.135,0.314-0.45,0.18-0.684c-11.125-19.361-22.249-38.722-33.373-58.083c-4.582-7.975-9.786-15.652-14.66-23.449
				c-8.275-13.236-16.551-26.472-24.826-39.708c-2.477-3.961-4.953-7.922-7.43-11.883c-0.1,0.245-0.199,0.49-0.299,0.734
				c24.029-4.629,48.058-9.258,72.086-13.887c9.467-1.824,18.935-3.647,28.401-5.472c-0.205-0.116-0.41-0.232-0.614-0.349
				c4.652,23.308,9.306,46.617,13.959,69.925c3.635,18.209,7.149,36.426,11.259,54.534c4.043,17.811,8.085,35.623,12.128,53.434
				c0.143,0.629,1.107,0.362,0.965-0.266c-5.058-22.283-10.115-44.565-15.173-66.849c-1.546-6.809-2.744-13.716-4.111-20.563
				c-3.077-15.416-6.155-30.832-9.232-46.248c-2.943-14.745-5.887-29.489-8.831-44.233c-0.056-0.282-0.362-0.398-0.614-0.349
				c-24.028,4.629-48.058,9.258-72.086,13.887c-9.468,1.824-18.935,3.647-28.401,5.472c-0.314,0.061-0.461,0.475-0.299,0.734
				c13.227,21.156,26.455,42.312,39.682,63.469c11.183,17.885,21.445,36.305,31.954,54.594c2.885,5.02,5.769,10.04,8.653,15.06
				c0.06-0.228,0.119-0.456,0.18-0.684c-21.596,12.269-43.191,24.537-64.787,36.806c-2.263,1.285-4.525,2.571-6.789,3.856
				c-0.214,0.122-0.344,0.47-0.179,0.684c14.284,18.533,28.567,37.066,42.852,55.6c9.835,12.761,19.671,25.522,29.506,38.283
				C361.789,474.403,362.658,473.906,362.265,473.395L362.265,473.395z"/>
		</g>
	</g>
	<g opacity="0.3">
		<g>
			<path fill="#F3EED0" d="M66.482,419.428c0.645,0,0.645-1,0-1S65.838,419.428,66.482,419.428L66.482,419.428z"/>
		</g>
	</g>
	<g opacity="0.3">
		<g>
			<path fill="#F3EED0" d="M65.832,419.41c23.75-6.495,47.501-12.99,71.251-19.485c8.831-2.415,17.661-4.83,26.491-7.245
				c0.428-0.117,0.482-0.687,0.119-0.914c-19.839-12.407-39.678-24.813-59.518-37.22c-13.793-8.625-27.585-17.25-41.377-25.875
				c0,0.288,0,0.576,0,0.863c20.764-10.59,41.529-21.18,62.293-31.77c0.225-0.115,0.45-0.229,0.676-0.344
				c-0.246-0.1-0.49-0.199-0.734-0.299c9.068,22.767,18.138,45.533,27.207,68.3c3.547,8.907,7.096,17.813,10.644,26.72
				c0.152,0.382,0.106-0.17,0.046,0.015c-0.115,0.351-0.229,0.701-0.344,1.052c-0.539,1.645-1.076,3.29-1.614,4.935
				c-1.982,6.062-3.964,12.123-5.946,18.185c-6.17,18.868-12.34,37.736-18.51,56.604c-0.201,0.615,0.764,0.876,0.963,0.266
				c7.734-23.65,15.469-47.3,23.203-70.951c1.066-3.262,2.133-6.523,3.199-9.785c0.402-1.23-1.447-4.137-1.881-5.226
				c-4.942-12.408-9.885-24.815-14.828-37.223c-7.059-17.719-14.117-35.438-21.176-53.158c-0.123-0.309-0.424-0.458-0.734-0.299
				c-20.764,10.59-41.529,21.18-62.293,31.77c-0.225,0.115-0.45,0.229-0.676,0.344c-0.347,0.177-0.301,0.675,0,0.863
				c19.84,12.407,39.68,24.813,59.519,37.22c13.792,8.625,27.585,17.25,41.378,25.875c0.039-0.305,0.079-0.609,0.119-0.914
				c-23.75,6.495-47.501,12.99-71.251,19.485c-8.831,2.415-17.661,4.83-26.491,7.245C64.945,418.616,65.209,419.581,65.832,419.41
				L65.832,419.41z"/>
		</g>
	</g>
	<g opacity="0.3">
		<g>
			<path fill="#F3EED0" d="M391.404,239.768c-7.256,23.343-14.512,46.686-21.768,70.029c-3.023,9.724-6.045,19.448-9.068,29.172
				c-0.191,0.617,0.773,0.879,0.965,0.266c7.256-23.343,14.512-46.686,21.768-70.029c3.023-9.724,6.045-19.448,9.068-29.172
				C392.561,239.417,391.596,239.154,391.404,239.768L391.404,239.768z"/>
		</g>
	</g>
	<g opacity="0.3">
		<g>
			<path fill="#F3EED0" d="M96.166,53.43c24.126-1.398,48.252-2.796,72.377-4.194c11.883-0.689,23.766-1.377,35.648-2.066
				c0.43-0.025,0.67-0.529,0.354-0.854c-11.022-11.323-22.045-22.646-33.067-33.968c-0.45-0.463-1.157,0.245-0.707,0.707
				c16.712,17.167,33.423,34.334,50.135,51.501c9.251,9.502,18.501,19.004,27.751,28.507c0.25,0.257,0.76,0.152,0.836-0.221
				c4.998-24.417,9.996-48.833,14.994-73.25c1.285-6.276,2.569-12.553,3.854-18.829c0.129-0.629-0.834-0.897-0.963-0.266
				c-4.999,24.417-9.997,48.833-14.995,73.25c-1.284,6.276-2.569,12.553-3.854,18.829c0.279-0.074,0.558-0.147,0.836-0.221
				c-16.711-17.167-33.424-34.334-50.135-51.501c-9.25-9.502-18.5-19.004-27.751-28.507c-0.235,0.236-0.472,0.471-0.707,0.707
				c11.022,11.323,22.045,22.646,33.067,33.968c0.117-0.285,0.236-0.569,0.354-0.854c-24.126,1.398-48.252,2.796-72.377,4.194
				c-11.883,0.689-23.766,1.377-35.648,2.066C95.525,52.467,95.521,53.467,96.166,53.43L96.166,53.43z"/>
		</g>
	</g>
	<g opacity="0.3">
		<g>
			<path fill="#F3EED0" d="M95.812,53.283c15.16,18.616,30.319,37.231,45.479,55.847c7.925,9.731,15.85,19.463,23.774,29.194
				c0.143,0.176,0.423,0.177,0.605,0.078c21.82-11.815,43.641-23.63,65.461-35.445c4.83-2.615,9.66-5.23,14.489-7.845
				c1.093-0.592,2.187-1.184,3.278-1.775c0.413-0.224,0.412-0.08-0.006-0.143c0.32,0.048,0.641,0.096,0.961,0.144
				c12.643,1.899,25.286,3.798,37.929,5.697c10.673,1.603,21.345,3.206,32.017,4.809c-0.33-0.05-0.361-0.319-0.021,0.134
				c0.293,0.389,0.587,0.778,0.88,1.167c1.064,1.414,2.129,2.828,3.194,4.241c3.645,4.837,7.289,9.675,10.933,14.513
				c15.422,20.471,30.844,40.942,46.266,61.414c0.289,0.384,0.155-0.399,0.086-0.276c-0.143,0.253-0.285,0.506-0.427,0.758
				c-0.682,1.211-1.363,2.421-2.045,3.632c-2.642,4.693-5.284,9.387-7.927,14.08c-7.777,13.812-15.553,27.623-23.329,41.434
				c-6.095,10.826-12.19,21.652-18.286,32.479c-0.558,0.99-1.115,1.981-1.674,2.972c-0.381,0.678,0.631,0.07-0.271,0.188
				c-2.977,0.388-5.953,0.776-8.93,1.164c-29.311,3.821-58.619,7.642-87.93,11.463c-9.547,1.244-19.094,2.489-28.64,3.733
				c0.118,0.285,0.235,0.569,0.354,0.854c15.188-17.566,30.377-35.132,45.565-52.698c9.065-10.485,18.131-20.97,27.196-31.454
				c2.008-2.322,4.015-4.644,6.022-6.965c0.846-0.979-0.039-2.488-0.355-3.615c-7.486-26.705-14.972-53.411-22.458-80.116
				c-2.837-10.123-5.675-20.246-8.513-30.369c-0.139-0.492-0.813-0.462-0.965,0c-7.58,23.215-15.16,46.431-22.741,69.646
				c-3.114,9.539-6.229,19.078-9.345,28.617c-0.201,0.615,0.766,0.876,0.965,0.266c7.58-23.215,15.16-46.431,22.741-69.646
				c3.114-9.539,6.229-19.078,9.345-28.617c-0.322,0-0.643,0-0.965,0c6.343,22.626,12.686,45.252,19.028,67.879
				c3.597,12.833,7.194,25.665,10.792,38.498c0.642,2.29,1.283,4.579,1.926,6.869c-0.08-0.283,0.293-0.645-0.042-0.257
				c-0.245,0.283-0.49,0.567-0.735,0.851c-0.957,1.106-1.914,2.213-2.871,3.319c-18.838,21.788-37.678,43.576-56.516,65.364
				c-6.261,7.241-12.521,14.481-18.782,21.722c-0.248,0.287-0.122,0.916,0.354,0.854c22.481-2.931,44.964-5.862,67.446-8.792
				c14.541-1.896,29.082-3.792,43.623-5.687c4.141-0.54,8.28-1.08,12.42-1.619c1.191-0.155,2.592,0.037,3.22-1.077
				c12.78-22.701,25.562-45.401,38.343-68.101c5.102-9.062,10.205-18.125,15.307-27.187c0.08-0.143,0.105-0.365,0-0.505
				c-14.746-19.575-29.492-39.149-44.238-58.724c-5.77-7.658-11.539-15.316-17.309-22.974c-0.346-0.459-0.727-0.438-1.275-0.521
				c-1.75-0.262-3.498-0.525-5.247-0.788c-6.7-1.006-13.4-2.013-20.101-3.019c-13.893-2.087-27.785-4.173-41.679-6.26
				c-1.925-0.289-2.935-0.677-4.603,0.226c-3.801,2.058-7.602,4.116-11.402,6.174c-23.42,12.682-46.842,25.364-70.262,38.045
				c-0.236,0.127-0.473,0.255-0.707,0.383c0.23-0.125,0.75,0.341,0.369-0.125c-0.661-0.812-1.322-1.625-1.984-2.438
				c-3.082-3.784-6.164-7.568-9.245-11.353c-9.825-12.065-19.649-24.129-29.476-36.194c-9.453-11.609-18.907-23.218-28.361-34.827
				C96.112,52.076,95.409,52.788,95.812,53.283L95.812,53.283z"/>
		</g>
	</g>
	<g opacity="0.3">
		<g>
			<path fill="#F3EED0" d="M440.983,88.171c-22.978,2.789-45.954,5.578-68.932,8.366c-17.371,2.108-34.742,4.217-52.113,6.325
				c0.144,0.251,0.288,0.501,0.432,0.752c10.656-22.586,21.312-45.173,31.968-67.76c1.803-3.819,3.604-7.639,5.406-11.459
				c0.273-0.58-0.588-1.088-0.863-0.505c-10.656,22.586-21.312,45.173-31.968,67.76c-1.802,3.819-3.604,7.639-5.406,11.459
				c-0.142,0.3,0.019,0.803,0.432,0.752c22.978-2.789,45.954-5.578,68.932-8.366c17.371-2.108,34.742-4.217,52.113-6.325
				C441.615,89.095,441.623,88.094,440.983,88.171L440.983,88.171z"/>
		</g>
	</g>
	<g opacity="0.3">
		<g>
			<path fill="#F3EED0" d="M481.204,155.529c-13.728,19.965-27.454,39.93-41.181,59.894c-6.516,9.477-13.031,18.953-19.547,28.429
				c0.287,0,0.576,0,0.863,0c-12.96-19.417-25.92-38.833-38.879-58.25c-0.622-0.932-0.573,0.119-0.17-0.537
				c0.6-0.973,1.197-1.947,1.796-2.92c2.591-4.214,5.183-8.428,7.774-12.642c8.141-13.237,16.28-26.474,24.42-39.711
				c8.379-13.623,16.756-27.247,25.134-40.87c0.339-0.551-0.526-1.053-0.863-0.505c-12.438,20.227-24.878,40.454-37.315,60.68
				c-7.354,11.958-14.707,23.915-22.061,35.872c-0.089,0.145-0.096,0.361,0,0.505c12.96,19.417,25.92,38.833,38.879,58.25
				c0.141,0.21,0.281,0.421,0.422,0.631c0.217,0.325,0.645,0.317,0.863,0c13.727-19.965,27.454-39.93,41.181-59.894
				c6.516-9.477,13.031-18.953,19.547-28.429C482.434,155.501,481.566,155.002,481.204,155.529L481.204,155.529z"/>
		</g>
	</g>
	<g>
		
			<image overflow="visible" opacity="0.1" width="1217" height="1572" xlink:href="A36C5833E3E88EBB.png"  transform="matrix(0.24 0 0 0.24 105.6611 61.7319)">
		</image>
		<g>
			<g>
				<polygon fill="#F3EED0" points="210.191,183.53 201.918,254.34 207.022,309.123 221.292,339.586 276.942,346.814 
					297.968,315.104 339.181,311.702 382.522,315.224 369.367,357.378 347.995,388.385 288.229,421.263 218.469,423.842 
					171.973,402.828 138.391,364.075 125.122,317.929 121.011,245.593 120.661,209.895 130.666,157.463 168.212,101.393 
					219.528,77.674 275.19,76.732 326.74,94.935 367.841,140.729 382.522,186.878 298.201,187.465 275.895,155.261 241.726,150.417 
									"/>
			</g>
		</g>
	</g>
	<g opacity="0.3">
		<g>
			<path fill="#F3EED0" d="M499.064,266.861c-9.699,7.699-19.399,15.398-29.1,23.098c-1.27,1.007-2.539,2.015-3.808,3.023
				c0.471-0.374,0.927,0.283,0.292-0.403c-0.463-0.5-0.924-0.999-1.387-1.498c-4.03-4.355-8.061-8.71-12.092-13.065
				c-10.569-11.421-21.139-22.842-31.709-34.264c-0.439-0.474-1.145,0.235-0.707,0.707c15.188,16.412,30.377,32.823,45.564,49.235
				c0.005,0.004,0.01,0.009,0.014,0.014c0.201,0.217,0.5,0.164,0.707,0c10.977-8.713,21.955-17.427,32.932-26.14
				C500.276,267.167,499.564,266.464,499.064,266.861L499.064,266.861z"/>
		</g>
	</g>
	<g opacity="0.3">
		<g>
			<path fill="#F3EED0" d="M452.566,198.635c-8.373-23.465-16.746-46.929-25.119-70.394c-1.273-3.569-2.548-7.139-3.822-10.708
				c-0.215-0.603-1.181-0.343-0.963,0.266c8.373,23.465,16.746,46.929,25.119,70.394c1.273,3.569,2.547,7.139,3.82,10.708
				C451.816,199.504,452.783,199.244,452.566,198.635L452.566,198.635z"/>
		</g>
	</g>
</g>
</svg>
